<!-- icon666.com - MILLIONS vector ICONS FREE --><svg id="Layer_1" enable-background="new 0 0 192 192" viewBox="0 0 192 192" xmlns="http://www.w3.org/2000/svg"><path d="m169.15 22.87 3.56 4.4-107.8 107.31 2.93 10.37-8.58 5.13-3.77-2.41-17.9 36.33-17.59-23.97 29.62-33.09 8.17-1.15 3.66-15.7 4.39-3.56-1.57-4.19 6.6-5.34 3.56 4.4z"></path><g><path d="m74.16 130c-2.45 0-4.82-1.04-6.16-1.93l1.11-1.67c.22.14 5.37 3.49 8.74.13 3.18-3.18.33-6.25 0-6.59l1.42-1.41c1.63 1.63 3.72 5.69 0 9.41-1.53 1.52-3.34 2.06-5.11 2.06z"></path></g><g><path d="m157.98 143.11-111.54-120.49-13.79 11.57 99.29 130.77v.01zm-37.98-13.11c-3.31 0-6-2.69-6-6 0-3.32 2.69-6 6-6s6 2.68 6 6c0 3.31-2.69 6-6 6z"></path><path d="m46.44 22.62-13.79 11.57c-1.69 1.42-4.22 1.2-5.64-.49-1.42-1.69-1.2-4.22.49-5.64l13.8-11.57c1.69-1.42 4.22-1.2 5.64.49 1.41 1.7 1.19 4.22-.5 5.64z"></path><path d="m38.23 19.06-7.66 6.43c-1.69 1.42-4.22 1.2-5.64-.49-1.42-1.69-1.2-4.22.49-5.64l7.66-6.43c1.69-1.42 4.22-1.2 5.64.49 1.42 1.7 1.2 4.22-.49 5.64z"></path><path d="m161.1 156.16-16.85 14.14c-5.08 4.26-12.65 3.6-16.91-1.48l35.24-29.57c4.26 5.08 3.6 12.65-1.48 16.91z"></path><circle cx="159.1" cy="170.89" r="9"></circle><path d="m142.96 162.76h22v4h-22z" transform="matrix(.766 -.643 .643 .766 -69.888 137.511)"></path></g></svg>