<!-- icon666.com - MILLIONS vector ICONS FREE --><svg id="Layer_1_1_" enable-background="new 0 0 48 48" viewBox="0 0 48 48" xmlns="http://www.w3.org/2000/svg"><path d="m27 21h6v4h-6c-.552 0-1 .447-1 1v6h-4v-6c0-.553-.448-1-1-1h-6v-4h6c.552 0 1-.447 1-1v-6h4v6c0 .553.448 1 1 1zm16-11.546c0 16.258 0 26.07-18.549 35.438-.142.072-.297.108-.451.108s-.309-.036-.451-.107c-18.549-9.369-18.549-19.181-18.549-35.439 0-.46.313-.86.76-.971l18-4.454c.157-.039.323-.039.481 0 0 0 13.196 3.27 17.999 4.454.446.111.76.511.76.971zm-8 10.546c0-.553-.448-1-1-1h-6v-6c0-.553-.448-1-1-1h-6c-.552 0-1 .447-1 1v6h-6c-.552 0-1 .447-1 1v6c0 .553.448 1 1 1h6v6c0 .553.448 1 1 1h6c.552 0 1-.447 1-1v-6h6c.552 0 1-.447 1-1z"></path></svg>