<!-- icon666.com - MILLIONS vector ICONS FREE --><svg enable-background="new 0 0 520 520" viewBox="0 0 520 520" xmlns="http://www.w3.org/2000/svg"><g id="_x33_10_x2C__Aim_x2C__Goal_x2C__Mark_x2C__Target"><path d="m500 250h-30.244c-5.082-107.854-91.902-194.674-199.756-199.756v-30.244c0-5.523-4.478-10-10-10-5.523 0-10 4.477-10 10v30.244c-107.854 5.082-194.674 91.902-199.756 199.756h-30.244c-5.523 0-10 4.477-10 10 0 5.522 4.477 10 10 10h30.244c5.082 107.854 91.902 194.674 199.756 199.756v30.244c0 5.522 4.477 10 10 10 5.522 0 10-4.478 10-10v-30.244c107.854-5.082 194.674-91.902 199.756-199.756h30.244c5.522 0 10-4.478 10-10 0-5.523-4.478-10-10-10zm-50.263 0h-40.079c-4.945-74.758-64.9-134.713-139.658-139.659v-40.078c96.824 5.045 174.692 82.913 179.737 179.737zm-189.737 50c-22.056 0-40-17.944-40-40s17.944-40 40-40 40 17.944 40 40-17.944 40-40 40zm-10-99.151c-25.084 4.228-44.922 24.067-49.15 49.151h-70.468c4.871-63.727 55.892-114.749 119.619-119.619v70.468zm-49.15 69.151c4.228 25.084 24.066 44.923 49.15 49.15v70.469c-63.727-4.871-114.748-55.891-119.619-119.619zm69.15 49.15c25.084-4.228 44.923-24.066 49.15-49.15h70.469c-4.87 63.728-55.892 114.749-119.619 119.619zm49.15-69.15c-4.228-25.084-24.066-44.923-49.15-49.151v-70.468c63.728 4.871 114.748 55.892 119.619 119.619zm-69.15-179.737v40.079c-74.758 4.946-134.713 64.9-139.658 139.659h-40.079c5.046-96.825 82.913-174.693 179.737-179.738zm-179.737 199.737h40.079c4.946 74.758 64.9 134.713 139.658 139.658v40.079c-96.824-5.045-174.691-82.913-179.737-179.737zm199.737 179.737v-40.079c74.758-4.945 134.713-64.9 139.658-139.658h40.079c-5.045 96.824-82.913 174.692-179.737 179.737z"></path></g></svg>